Coordinates
version=1
nRows=17
nColumns=36
inDegrees=yes

Units are S.I. units (second, meters, Newtons, ...)
If the header above contains a line with 'inDegrees', this indicates whether rotational values are in degrees (yes) or radians (no).

endheader
time	pelvis_tilt	pelvis_list	pelvis_rotation	pelvis_tx	pelvis_ty	pelvis_tz	hip_flexion_r	hip_adduction_r	hip_rotation_r	knee_angle_r	knee_angle_r_beta	ankle_angle_r	subtalar_angle_r	mtp_angle_r	hip_flexion_l	hip_adduction_l	hip_rotation_l	knee_angle_l	knee_angle_l_beta	ankle_angle_l	subtalar_angle_l	mtp_angle_l	lumbar_extension	lumbar_bending	lumbar_rotation	arm_flex_r	arm_add_r	arm_rot_r	elbow_flex_r	pro_sup_r	arm_flex_l	arm_add_l	arm_rot_l	elbow_flex_l	pro_sup_l
      3.53000000	      0.26817506	      2.00512131	      1.31566679	     -0.49496763	      0.56817791	     -0.70621940	     90.06043481	    -17.03661544	      9.42515340	    101.20205275	      1.76630903	     21.10365095	      4.97316017	     -7.49999987	     87.33167990	    -11.17638617	      2.92272930	     99.73758275	      1.74074921	     19.07457113	     -3.47452029	     -7.49999987	    -25.43285760	     -2.10498897	     -2.82071108	     10.74337365	     -9.28012715	     -1.15083554	    127.55536459	    101.07909996	     11.39068103	    -11.72223960	     -2.74146167	    133.08704080	    101.67316110
      3.54000000	     -0.96299882	      1.99840168	      1.16374684	     -0.49406028	      0.56610970	     -0.70511867	     91.43962406	    -16.77972061	      9.38527273	    101.22512395	      1.76671170	     21.14951221	      5.09667022	     -7.49999987	     88.67036882	    -11.51729990	      2.90835304	     99.71841181	      1.74041461	     19.02253949	     -3.39221532	     -7.49999987	    -25.47985214	     -2.13437619	     -2.66874691	     10.85282291	     -9.29597644	     -1.50925000	    128.09264291	    101.13343325	     11.51173507	    -11.81575160	     -3.11447977	    133.73223207	    101.75924465
      3.55000000	     -2.12459984	      2.10694876	      0.99431539	     -0.49303746	      0.56440947	     -0.70430983	     92.75203406	    -16.57710367	      9.45546407	    101.22288529	      1.76667263	     21.13965152	      5.12057002	     -7.49999987	     89.83229069	    -11.78456089	      2.79586697	     99.69962093	      1.74008665	     18.99893914	     -3.30093083	     -7.49999987	    -25.71555022	     -2.23304564	     -2.55051463	     10.97860481	     -9.34822110	     -1.92716056	    128.69442397	    101.19815571	     11.68040702	    -11.91477834	     -3.51648588	    134.35037010	    101.85111110
      3.56000000	     -3.19550822	      2.42375532	      0.84434435	     -0.49174396	      0.56318006	     -0.70390312	     94.02614560	    -16.51826450	      9.72037596	    101.21927906	      1.76660969	     21.08721402	      5.15582156	     -7.49999987	     90.73496128	    -11.99260883	      2.39358604	     99.63734894	      1.73899980	     19.07269774	     -3.26116745	     -7.49999987	    -26.15736315	     -2.49003449	     -2.53450716	     11.04812872	     -9.46259353	     -2.35049653	    129.37778158	    101.26355813	     11.84511502	    -12.00994341	     -3.93274772	    135.00864027	    101.93957340
      3.57000000	     -4.41156569	      2.68831138	      0.78140034	     -0.49028664	      0.56147975	     -0.70368996	     95.46358164	    -16.54557568	      9.94290622	    101.24677010	      1.76708950	     21.00872551	      5.23741147	     -7.49999987	     91.85043059	    -12.14040356	      2.03419647	     99.60985992	      1.73852002	     19.18388408	     -3.24756002	     -7.49999987	    -26.45638867	     -2.65405471	     -2.58335168	     11.06877104	     -9.70122414	     -2.78538362	    130.11848816	    101.32278447	     11.90846779	    -12.09706205	     -4.35754430	    135.72619861	    102.02521089
      3.58000000	     -5.93194581	      2.69318707	      0.77936154	     -0.48870236	      0.55879353	     -0.70354375	     97.13818487	    -16.56297915	      9.91443246	    101.28573149	      1.76776950	     20.92386553	      5.34909326	     -7.49999987	     93.48492083	    -12.25948654	      2.01103687	     99.67655363	      1.73968405	     19.27473933	     -3.22312811	     -7.49999987	    -26.42896192	     -2.52879918	     -2.60064523	     11.03625077	    -10.06620572	     -3.25724294	    130.94306186	    101.37867372	     11.80268233	    -12.18911534	     -4.81925237	    136.54869201	    102.12474784
      3.59000000	     -7.62061071	      2.52616211	      0.74486543	     -0.48698767	      0.55560832	     -0.70325671	     98.90968775	    -16.52092544	      9.68163356	    101.30233742	      1.76805933	     20.87194230	      5.44076576	     -7.49999987	     95.40251474	    -12.44839555	      2.21542548	     99.80463794	      1.74191954	     19.34701940	     -3.16153194	     -7.49999987	    -26.23590893	     -2.23493781	     -2.53818680	     10.97662634	    -10.47703664	     -3.73430705	    131.83865770	    101.43409469	     11.58379478	    -12.31746895	     -5.36636906	    137.45007676	    102.24357821
      3.60000000	     -9.33247044	      2.39534851	      0.65622513	     -0.48510145	      0.55244270	     -0.70274871	    100.68506531	    -16.41989202	      9.47589205	    101.31688426	      1.76831322	     20.83661363	      5.51514446	     -7.49999987	     97.31127373	    -12.72090521	      2.38278445	     99.93945441	      1.74427253	     19.43772767	     -3.05334574	     -7.49999987	    -26.08534561	     -1.99504768	     -2.45518025	     10.89609922	    -10.84755148	     -4.18353262	    132.75987944	    101.48633884	     11.29508890	    -12.49815422	     -6.01868261	    138.36669966	    102.37545786
      3.61000000	    -11.05611143	      2.31712255	      0.55612921	     -0.48304332	      0.54930154	     -0.70218634	    102.48898574	    -16.32846965	      9.30421253	    101.35580782	      1.76899256	     20.78502178	      5.61420597	     -7.49999987	     99.19947524	    -13.07602212	      2.44242402	    100.08565737	      1.74682426	     19.54627135	     -2.86606490	     -7.49999987	    -25.97460703	     -1.83264852	     -2.40467013	     10.75998019	    -11.20561964	     -4.65487417	    133.70602940	    101.52848916	     10.90181090	    -12.69832819	     -6.73529041	    139.33868885	    102.52347609
      3.62000000	    -12.79245121	      2.24081640	      0.43393418	     -0.48082914	      0.54618263	     -0.70152712	    104.27196629	    -16.20868351	      9.11872657	    101.39968008	      1.76975828	     20.74667654	      5.72049877	     -7.49999987	    101.08505339	    -13.47629095	      2.50541584	    100.25247239	      1.74973573	     19.67891415	     -2.57965286	     -7.49999987	    -25.90637018	     -1.71523123	     -2.33598634	     10.56610468	    -11.56952244	     -5.22778123	    134.67870774	    101.55936891	     10.41842943	    -12.96354147	     -7.48516991	    140.39423299	    102.68659664
      3.63000000	    -14.53145376	      2.20305945	      0.32624150	     -0.47836224	      0.54321655	     -0.70082473	    106.02795467	    -16.16188030	      8.89254350	    101.44216916	      1.77049985	     20.77996472	      5.78873928	     -7.49999987	    102.90233679	    -13.87906766	      2.52126326	    100.39508852	      1.75222485	     19.89345701	     -2.28558070	     -7.49999987	    -25.90209047	     -1.64157364	     -2.26274396	     10.27599219	    -11.91582347	     -5.91389748	    135.71557444	    101.59075106	      9.87018672	    -13.32973605	     -8.31431251	    141.45520821	    102.84374070
      3.64000000	    -16.31601766	      2.21036520	      0.26305138	     -0.47557484	      0.54033121	     -0.70018229	    107.81318644	    -16.21496058	      8.66992759	    101.50016587	      1.77151209	     20.87933126	      5.85215617	     -7.49999987	    104.69055484	    -14.26653361	      2.46613685	    100.51022976	      1.75423444	     20.21599874	     -2.04216234	     -7.49999987	    -25.88830519	     -1.58343006	     -2.22368306	      9.87428187	    -12.26351230	     -6.67331075	    136.81826341	    101.62515583	      9.25147848	    -13.73072210	     -9.30894682	    142.40239262	    102.98626079
      3.65000000	    -18.17297841	      2.20040563	      0.11756003	     -0.47243493	      0.53740641	     -0.69927215	    109.61336109	    -16.19878425	      8.36494571	    101.56860398	      1.77270656	     21.02537275	      5.96909781	     -7.49999987	    106.54363176	    -14.82141902	      2.41547053	    100.65448736	      1.75675221	     20.57181816	     -1.74127405	     -7.49999987	    -25.78882792	     -1.55343799	     -2.11881970	      9.35980516	    -12.62627875	     -7.46359570	    137.91459109	    101.65585761	      8.54354120	    -14.10584930	    -10.47103850	    143.24604309	    103.13363298
      3.66000000	    -20.04199728	      2.16046645	     -0.12897972	     -0.46892614	      0.53460172	     -0.69809029	    111.33570996	    -16.10526684	      7.95341327	    101.63350553	      1.77383930	     21.21314830	      6.11699700	     -7.49999987	    108.39307873	    -15.55631260	      2.38119857	    100.82455148	      1.75972039	     20.86432888	     -1.27079854	     -7.49999987	    -25.65547900	     -1.56004301	     -1.92054161	      8.70002228	    -12.97093828	     -8.25758339	    138.92691096	    101.68270628	      7.70969563	    -14.48000735	    -11.71961839	    144.03650837	    103.29223643
      3.67000000	    -21.94102287	      2.14084286	     -0.25540541	     -0.46509932	      0.53189327	     -0.69733329	    113.08146907	    -16.24637257	      7.54817465	    101.72704325	      1.77547184	     21.42545327	      6.30879787	     -7.49999987	    110.19666492	    -16.13895497	      2.30174056	    100.96612419	      1.76219130	     21.16198750	     -0.55983404	     -7.49999987	    -25.45339648	     -1.54393880	     -1.87739459	      8.02497167	    -13.29004567	     -9.15572279	    139.82988959	    101.70261624	      6.75283068	    -14.75374665	    -13.19428194	    144.73117133	    103.50802425
      3.68000000	    -23.71558238	      2.16330552	     -0.16648329	     -0.46108067	      0.52965330	     -0.69725664	    114.70716265	    -16.71464555	      7.25063648	    101.82789764	      1.77723208	     21.63607143	      6.46824980	     -7.49999987	    111.74666303	    -16.45799160	      2.07328448	    101.01168563	      1.76298650	     21.41540985	     -0.17724140	     -7.49999987	    -25.44436860	     -1.44672723	     -2.00466649	      7.37863737	    -13.77292564	    -10.07070768	    140.66745786	    101.72054199	      5.80815714	    -15.14462092	    -14.58183684	    145.30204268	    103.66683633
      3.69000000	    -25.53744244	      2.12187794	      0.01154590	     -0.45683430	      0.52763824	     -0.69744646	    116.29237514	    -17.32160041	      6.95793651	    101.88605896	      1.77824719	     21.85817304	      6.68135128	     -7.49999987	    113.30663811	    -16.69130597	      1.84475841	    101.00256181	      1.76282726	     21.66212050	      0.08723584	     -7.49999987	    -25.33210982	     -1.23027064	     -2.23740177	      6.77702532	    -14.15598921	    -11.05988957	    141.36725791	    101.72500516	      4.77129224	    -15.31609376	    -16.31837584	    145.70375662	    103.83608051
